<svg id="address-icon" xmlns="http://www.w3.org/2000/svg" viewBox="0 0 100 95.8333"><defs><style>.cls-1{fill:#495057;}</style></defs><title>address-icon</title><g id="addresses"><path class="cls-1" d="M85.4167,97.9167h-25a2.0822,2.0822,0,0,1-2.0834-2.0834V68.75H41.6667V95.8333a2.0822,2.0822,0,0,1-2.0834,2.0834h-25A2.0821,2.0821,0,0,1,12.5,95.8333V54.1667a2.0834,2.0834,0,1,1,4.1667,0V93.75H37.5V66.6667a2.0821,2.0821,0,0,1,2.0833-2.0834H60.4167A2.0821,2.0821,0,0,1,62.5,66.6667V93.75H83.3333V56.25a2.0834,2.0834,0,0,1,4.1667,0V95.8333A2.0821,2.0821,0,0,1,85.4167,97.9167Z" transform="translate(0 -2.0833)"/><path class="cls-1" d="M97.9167,54.1667a2.0766,2.0766,0,0,1-1.473-.61L50,7.1126,3.5563,53.5563A2.0831,2.0831,0,0,1,.61,50.61L48.527,2.6937a2.0826,2.0826,0,0,1,2.946,0L99.39,50.61a2.0834,2.0834,0,0,1-1.4729,3.5563Z" transform="translate(0 -2.0833)"/><path class="cls-1" d="M81.25,25a2.0821,2.0821,0,0,1-2.0833-2.0833v-12.5h-12.5a2.0834,2.0834,0,1,1,0-4.1667H81.25a2.0821,2.0821,0,0,1,2.0833,2.0833V22.9167A2.0821,2.0821,0,0,1,81.25,25Z" transform="translate(0 -2.0833)"/></g></svg>