<svg id="edit-icon" xmlns="http://www.w3.org/2000/svg" viewBox="0 0 99.9999 100"><defs><style>.cls-1{fill:#495057;}</style></defs><title>edit</title><path class="cls-1" d="M2.1579,100A2.1588,2.1588,0,0,1,.0948,97.2077L8.7267,69.1541a2.1519,2.1519,0,0,1,.5374-.8914L61.0554,16.4714a2.1571,2.1571,0,0,1,3.0515,0L83.5286,35.8931a2.1573,2.1573,0,0,1,0,3.0515L31.7373,90.7359a2.1535,2.1535,0,0,1-.8914.5374L2.7923,99.9052A2.1844,2.1844,0,0,1,2.1579,100Zm10.537-29.0652L5.42,94.58l23.6449-7.2747L78.9513,37.4189l-16.37-16.37ZM30.2116,89.21h0Z" transform="translate(0)"/><path class="cls-1" d="M82.0028,39.5768a2.158,2.158,0,0,1-1.5257-3.6837L93.7958,22.5765a6.4946,6.4946,0,0,0,0-9.1566L86.58,6.2063a6.4867,6.4867,0,0,0-9.1545,0L64.1069,19.5229a2.1577,2.1577,0,1,1-3.0515-3.0515L74.3741,3.1548a10.8011,10.8011,0,0,1,15.2575,0l7.2157,7.2136a10.8087,10.8087,0,0,1,0,15.26L83.5286,38.9446A2.1509,2.1509,0,0,1,82.0028,39.5768Z" transform="translate(0)"/><path class="cls-1" d="M25.8956,76.2623A2.158,2.158,0,0,1,24.37,72.5786L70.7662,26.1822a2.1578,2.1578,0,1,1,3.0515,3.0516L27.4214,75.63A2.1509,2.1509,0,0,1,25.8956,76.2623Z" transform="translate(0)"/><path class="cls-1" d="M30.2116,91.3681a2.1509,2.1509,0,0,1-1.5258-.6322L24.37,86.42a2.1564,2.1564,0,0,1-.6323-1.5258V76.2623H15.1058A2.1566,2.1566,0,0,1,13.58,75.63L9.2641,71.3142a2.1577,2.1577,0,1,1,3.0515-3.0515l3.6837,3.6837h9.8963a2.1568,2.1568,0,0,1,2.158,2.158v9.8963l3.6837,3.6837a2.158,2.158,0,0,1-1.5257,3.6837Z" transform="translate(0)"/><path class="cls-1" d="M15.1058,95.6841a2.151,2.151,0,0,1-1.5258-.6323L4.9481,86.42A2.1577,2.1577,0,0,1,8,83.3685L16.6315,92a2.1581,2.1581,0,0,1-1.5257,3.6838Z" transform="translate(0)"/><path class="cls-1" d="M88.4767,33.1029a2.1508,2.1508,0,0,1-1.5257-.6322L67.5293,13.049a2.1577,2.1577,0,1,1,3.0515-3.0515L90.0025,29.4192a2.158,2.158,0,0,1-1.5258,3.6837Z" transform="translate(0)"/></svg>