<svg id="logout-icon" xmlns="http://www.w3.org/2000/svg" viewBox="0 0 90.3226 100"><defs><style>.cls-1{fill:#495057;}</style></defs><title>logout-icon</title><g id="logout"><path class="cls-1" d="M50,100A45.17,45.17,0,0,1,32.4219,13.2245a3.2273,3.2273,0,0,1,2.5075,5.9476,38.696,38.696,0,1,0,29.9585-.0882A3.2224,3.2224,0,1,1,67.37,13.1363,45.17,45.17,0,0,1,50,100Z" transform="translate(-4.8387)"/><path class="cls-1" d="M50,48.3871a3.224,3.224,0,0,1-3.2258-3.2258V3.2258a3.2258,3.2258,0,0,1,6.4516,0V45.1613A3.224,3.224,0,0,1,50,48.3871Z" transform="translate(-4.8387)"/></g></svg>