<svg id="order-icon" xmlns="http://www.w3.org/2000/svg" viewBox="0 0 100 100"><defs><style>.cls-1{fill:#495057;}</style></defs><title>order-icon</title><g id="orders"><path class="cls-1" d="M52.0833,100a2.0666,2.0666,0,0,1-.8016-.1607L1.2822,79.0062A2.0821,2.0821,0,0,1,.0005,77.0836V22.9175a2.083,2.083,0,0,1,2.8849-1.9226l50,20.8331a2.0818,2.0818,0,0,1,1.2817,1.9226V97.9167A2.0833,2.0833,0,0,1,52.0833,100ZM4.1671,75.694,50,94.7917V45.14L4.1671,26.0424Z" transform="translate(0)"/><path class="cls-1" d="M52.0833,100A2.0841,2.0841,0,0,1,50,97.9167V43.7506a2.08,2.08,0,0,1,1.2207-1.8962L97.0536,21.0213A2.0836,2.0836,0,0,1,100,22.9175V77.0836A2.0794,2.0794,0,0,1,98.7788,78.98L52.9459,99.8128A2.072,2.072,0,0,1,52.0833,100Zm2.0833-54.9087V94.6819L95.8329,75.7428V26.1523Z" transform="translate(0)"/><path class="cls-1" d="M97.9162,25.0008a2.067,2.067,0,0,1-.83-.173L50,4.3568,2.9139,24.8278a2.0829,2.0829,0,1,1-1.66-3.8207L49.17.1739a2.0679,2.0679,0,0,1,1.66,0L98.7462,21.0071a2.0827,2.0827,0,0,1-.83,3.9937Z" transform="translate(0)"/><rect class="cls-1" x="50.9901" y="-3.7992" width="4.1679" height="51.2136" transform="translate(10.5896 60.3758) rotate(-64.571)"/><path class="cls-1" d="M39.5834,77.0836a2.09,2.09,0,0,1-.9318-.22l-25-12.5A2.0879,2.0879,0,0,1,12.5,62.5V41.6673a2.084,2.084,0,0,1,3.0151-1.8636l25,12.5a2.0879,2.0879,0,0,1,1.1516,1.8636V75a2.0847,2.0847,0,0,1-2.0834,2.0833ZM16.667,61.2126,37.5,71.6291V55.455L16.667,45.0384Z" transform="translate(0)"/></g></svg>