<svg id="password-icon" xmlns="http://www.w3.org/2000/svg" viewBox="0 0 100 100"><defs><style>.cls-1{fill:#495057;}</style></defs><title>password-icon</title><g id="password"><path class="cls-1" d="M29.1667,47.9167A4.1667,4.1667,0,1,1,33.3333,43.75,4.1721,4.1721,0,0,1,29.1667,47.9167Zm-.0021-4.1687-2.0813.002,2.0834.002Z"/><path class="cls-1" d="M29.1667,56.25a2.0821,2.0821,0,0,1-2.0834-2.0833V45.8333a2.0834,2.0834,0,0,1,4.1667,0v8.3334A2.0821,2.0821,0,0,1,29.1667,56.25Z"/><path class="cls-1" d="M6.25,75H2.0833A2.0821,2.0821,0,0,1,0,72.9167V31.25a2.0821,2.0821,0,0,1,2.0833-2.0833H56.25A2.0821,2.0821,0,0,1,58.3333,31.25V52.0833a2.0833,2.0833,0,1,1-4.1666,0v-18.75h-50v37.5H6.25A2.0834,2.0834,0,0,1,6.25,75Z"/><path class="cls-1" d="M47.9167,33.3333A2.0821,2.0821,0,0,1,45.8333,31.25V20.8333a16.6667,16.6667,0,0,0-33.3333,0V31.25a2.0834,2.0834,0,0,1-4.1667,0V20.8333a20.8334,20.8334,0,0,1,41.6667,0V31.25A2.0821,2.0821,0,0,1,47.9167,33.3333Z"/><path class="cls-1" d="M97.9167,100H18.75a2.0821,2.0821,0,0,1-2.0833-2.0833V64.5833A2.0821,2.0821,0,0,1,18.75,62.5H97.9167A2.0821,2.0821,0,0,1,100,64.5833V97.9167A2.0821,2.0821,0,0,1,97.9167,100ZM20.8333,95.8333h75V66.6667h-75Z"/><path class="cls-1" d="M41.6667,89.5833a2.0765,2.0765,0,0,1-1.473-.61l-12.5-12.5A2.0831,2.0831,0,1,1,30.64,73.527l12.5,12.5a2.0833,2.0833,0,0,1-1.4729,3.5563Z"/><path class="cls-1" d="M29.1667,89.5833a2.0833,2.0833,0,0,1-1.473-3.5563l12.5-12.5A2.0831,2.0831,0,1,1,43.14,76.473l-12.5,12.5A2.0764,2.0764,0,0,1,29.1667,89.5833Z"/><path class="cls-1" d="M64.5833,89.5833a2.0764,2.0764,0,0,1-1.4729-.61l-12.5-12.5a2.0831,2.0831,0,1,1,2.9459-2.946l12.5,12.5a2.0833,2.0833,0,0,1-1.473,3.5563Z"/><path class="cls-1" d="M52.0833,89.5833A2.0833,2.0833,0,0,1,50.61,86.027l12.5-12.5a2.0831,2.0831,0,0,1,2.9459,2.946l-12.5,12.5A2.0765,2.0765,0,0,1,52.0833,89.5833Z"/><path class="cls-1" d="M89.5833,91.6667H72.9167a2.0834,2.0834,0,1,1,0-4.1667H89.5833a2.0834,2.0834,0,1,1,0,4.1667Z"/></g></svg>