<svg id="subscription-icon" xmlns="http://www.w3.org/2000/svg" viewBox="0 0 100 84.7826"><defs><style>.cls-1{fill:#495057;}</style></defs><title>subscription-icon</title><g id="subsciptions"><path class="cls-1" d="M71.7391,66.3043H60.87a2.1739,2.1739,0,1,1,0-4.3478h8.6956V53.2609a2.1739,2.1739,0,0,1,4.3478,0V64.13A2.1726,2.1726,0,0,1,71.7391,66.3043Z" transform="translate(0 -7.6087)"/><path class="cls-1" d="M71.7391,66.3043a2.177,2.177,0,0,1-2.0508-1.45c-2.3352-6.6088-9.8675-11.5935-17.5144-11.5935S36.999,58.2456,34.66,64.8565a2.1755,2.1755,0,0,1-4.1016-1.4521c2.9764-8.3963,12.0627-14.4914,21.616-14.4914S70.8178,55.0081,73.79,63.4065a2.1755,2.1755,0,0,1-2.0508,2.8978Z" transform="translate(0 -7.6087)"/><path class="cls-1" d="M32.6087,90.2174a2.1726,2.1726,0,0,1-2.1739-2.1739v-10.87A2.1726,2.1726,0,0,1,32.6087,75h10.87a2.1739,2.1739,0,0,1,0,4.3478H34.7826v8.6957A2.1726,2.1726,0,0,1,32.6087,90.2174Z" transform="translate(0 -7.6087)"/><path class="cls-1" d="M52.1739,92.3913c-9.5533,0-18.6438-6.095-21.616-14.4935A2.1748,2.1748,0,0,1,34.66,76.45c2.3352,6.6088,9.8675,11.5935,17.5144,11.5935s15.1749-4.9847,17.5144-11.5956A2.1755,2.1755,0,0,1,73.79,77.9C70.8135,86.2963,61.7272,92.3913,52.1739,92.3913Z" transform="translate(0 -7.6087)"/><path class="cls-1" d="M16.7247,70.0408a2.2627,2.2627,0,0,1-.2675-.0149C12.5977,69.5546,0,66.8967,0,52.4117A17.7724,17.7724,0,0,1,19.0387,34.6892,31.2387,31.2387,0,0,1,77.6282,24.27,22.9311,22.9311,0,0,1,100,47.2147c0,14.27-10.1732,19.82-16.2364,21.86a2.1745,2.1745,0,0,1-1.3842-4.1228c6.0547-2.0338,13.2728-6.7637,13.2728-17.7373A18.5839,18.5839,0,0,0,76.3714,28.6239a2.0368,2.0368,0,0,1-2.0465-1.24A26.8919,26.8919,0,0,0,23.153,37.2792a2.1738,2.1738,0,0,1-2.6155,2,13.4254,13.4254,0,0,0-16.19,13.1327c0,10.2327,7.9144,12.7229,12.6359,13.2982a2.1735,2.1735,0,0,1-.259,4.3309Z" transform="translate(0 -7.6087)"/></g></svg>